<?xml version="1.0" encoding="utf-8"?>
<!-- Generator: Adobe Illustrator 24.3.0, SVG Export Plug-In . SVG Version: 6.00 Build 0)  -->
<svg version="1.1" id="Capa_1" xmlns="http://www.w3.org/2000/svg" xmlns:xlink="http://www.w3.org/1999/xlink" x="0px" y="0px"
	 viewBox="0 0 512 512" style="enable-background:new 0 0 512 512;" xml:space="preserve">
<style type="text/css">
	.st0{fill:#FFFFFF;}
</style>
<path class="st0" d="M256,319c-83.3,0-83.4-126,0-126C339.3,193,339.4,319,256,319z"/>
<path class="st0" d="M239,101L239,101c-126,0.1-138,2.5-138,154.9c0,150.7,4.3,155,154.9,155c82.6,0,149.8,9.7,153.8-78.6
	C421.2,82.8,400.6,100.8,239,101z M256,353.1c-53.6,0-97.1-43.5-97.1-97.1c0-53.6,43.5-97.1,97.1-97.1c53.6,0,97,43.5,97,97.1
	C353,309.6,309.6,353.1,256,353.1z M356.9,177.8c-12.5,0-22.7-10.2-22.7-22.7c0-12.5,10.2-22.7,22.7-22.7
	c12.5,0,22.7,10.2,22.7,22.7C379.5,167.6,369.4,177.8,356.9,177.8z"/>
<path class="st0" d="M511.5,111c-5-64.1-44.5-101.1-96.6-108.6C403,0.6,400.6,0.1,339.4,0C122.4,0.1,74.8-9.6,32,34.8
	C-8.2,76.6,0,121,0,255.9c0,112-19.5,224.3,82.7,250.7c31.9,8.2,314.9,8.2,346.8,0c42.6-11,77.2-45.5,82-105.8
	C512.2,392.4,512.2,119.5,511.5,111z M435,379.8c-28.4,73-104.9,65.2-179.1,65.2c-76.9,0-151,6.9-179.1-65.2
	c-11.5-29.6-9.9-75.2-9.9-123.8c0-55.4-1.7-94.1,9.9-123.8C104.9,60.1,178.4,67,255.9,67h0.1c71.9,0,121-4.5,157.2,31.7
	c35.8,35.8,31.8,83.5,31.8,157.3C444.9,311.7,446.6,349.8,435,379.8z"/>
</svg>
